<?xml version="1.0" encoding="UTF-8"?>
<svg width="700pt" height="700pt" version="1.1" viewBox="0 0 700 700" xmlns="http://www.w3.org/2000/svg">
 <path d="m358.51 0.17188c-15.055-0.44141-30.117 0.32812-45.016 2.2891-59.594 7.8438-116.69 34.793-161.46 79.57-89.551 89.551-107.89 228.26-44.57 337.93 63.324 109.68 192.64 163.28 314.96 130.5 22.582-6.0391 13.523-39.91-9.0547-33.875-107.2 28.723-220.07-17.949-275.56-114.05-55.488-96.105-39.574-217.36 38.898-295.83 78.469-78.469 199.72-94.383 295.82-38.895 96.105 55.488 142.78 168.36 114.06 275.56-6.0391 22.582 27.832 31.641 33.871 9.0586 32.777-122.33-20.82-251.64-130.5-314.97-41.129-23.746-86.297-35.969-131.45-37.289zm-8.5781 87.293c-48.117 0-87.465 39.449-87.465 87.566s39.348 87.465 87.465 87.465c48.117 0 87.602-39.348 87.602-87.465s-39.484-87.566-87.602-87.566zm0 192.6c-12.082 0-24.117 1.5234-35.891 4.6484-11.773 3.125-23.152 7.832-33.973 14.082-10.824 6.25-20.73 13.859-29.324 22.488-8.5938 8.6328-15.938 18.211-21.977 28.676-6.043 10.465-10.766 21.805-13.945 33.566-3.1797 11.758-4.7852 23.938-4.7852 36.434-0.035156 9.6641 7.7656 17.531 17.434 17.566h245.07c9.6641-0.039063 17.469-7.9023 17.434-17.566 0-12.496-1.6055-24.676-4.7852-36.434-3.1797-11.758-7.9023-23.102-13.945-33.566-6.043-10.465-13.484-20.043-22.078-28.676-8.5938-8.6328-18.367-16.242-29.191-22.488-10.824-6.25-22.203-10.957-33.973-14.082-11.773-3.125-23.977-4.6484-36.059-4.6484zm209.79 122.19c-9.6094 0.1875-17.273 8.0938-17.16 17.707v35h-35.035c-23.355 0-23.355 35.035 0 35.035h35.035v35c0.50781 22.82 34.492 22.82 35 0v-35h34.863c23.355 0 23.355-35.035 0-35.035h-34.863v-35c0.11719-9.8789-7.9648-17.898-17.84-17.707z" fill-rule="evenodd"/>
</svg>
