<?xml version="1.0" encoding="iso-8859-1"?>
<!-- Generator: Adobe Illustrator 19.0.0, SVG Export Plug-In . SVG Version: 6.00 Build 0)  -->
<svg version="1.1" id="Capa_1" xmlns="http://www.w3.org/2000/svg" xmlns:xlink="http://www.w3.org/1999/xlink" x="0px" y="0px"
	 viewBox="0 0 487.7 487.7" style="enable-background:new 0 0 487.7 487.7;" xml:space="preserve">
<g>
	<path d="M352.8,184.05H23.3c-12.9,0-23.3,10.4-23.3,23.3v186.3c0,12.9,10.4,23.3,23.3,23.3h329.5c12.9,0,23.3-10.4,23.3-23.3
		v-186.3C376.1,194.45,365.6,184.05,352.8,184.05z M348.3,350.55c-1.9-0.3-3.8-0.5-5.8-0.5c-18.2,0-33,14.8-33,33
		c0,2.1,0.2,4.1,0.6,6.1H68.7c0.2-1.3,0.3-2.7,0.3-4.1c0-18.2-14.8-33-33-33c-2.8,0-5.6,0.4-8.2,1v-101.2c2.6,0.7,5.3,1,8.2,1
		c18.2,0,33-14.8,33-33c0-2.8-0.4-5.5-1-8h242.1c-0.4,2-0.6,4-0.6,6.1c0,18.2,14.8,33,33,33c2,0,3.9-0.2,5.8-0.5V350.55z
		 M431.7,159.85v168.1c0,3.1-0.4,6.1-1.3,9c-4.3,14.8-26.5,11.1-26.5-4.3v-10.3v-152.1c0-8.2-6.7-14.9-14.9-14.9H93.2h-9.8h-0.2
		c-15.4,0-19.1-22.2-4.3-26.5c2.9-0.8,5.9-1.3,9-1.3h311.3C417.2,127.45,431.7,141.95,431.7,159.85z M487.7,103.15v168.1
		c0,3.1-0.4,6.1-1.3,9c-4.3,14.8-26.5,11.1-26.5-4.3l0,0v-10.3v-152.2c0-8.2-6.7-14.9-14.9-14.9H149.1h-9.8h-0.2
		c-15.4,0-19.1-22.2-4.3-26.5c2.9-0.8,5.9-1.3,9-1.3h311.3C473.2,70.75,487.7,85.25,487.7,103.15z M309.8,300.25
		c0,10.9-8.8,19.7-19.7,19.7c-10.9,0-19.7-8.8-19.7-19.7c0-10.9,8.8-19.7,19.7-19.7C301,280.55,309.8,289.35,309.8,300.25z
		 M103.3,300.25c0,10.9-8.8,19.7-19.7,19.7c-10.9,0-19.7-8.8-19.7-19.7c0-10.9,8.8-19.7,19.7-19.7
		C94.5,280.55,103.3,289.35,103.3,300.25z M186.9,229.25c-39.2,0-71,31.8-71,71s31.8,71,71,71s71-31.8,71-71
		S226.1,229.25,186.9,229.25z M186.9,341.35c-22.7,0-41.1-18.4-41.1-41.1s18.4-41.1,41.1-41.1s41.1,18.4,41.1,41.1
		S209.5,341.35,186.9,341.35z"/>
</g>
<g>
</g>
<g>
</g>
<g>
</g>
<g>
</g>
<g>
</g>
<g>
</g>
<g>
</g>
<g>
</g>
<g>
</g>
<g>
</g>
<g>
</g>
<g>
</g>
<g>
</g>
<g>
</g>
<g>
</g>
</svg>
