<svg viewBox="0 0 24 24" aria-hidden="true" class="r-18jsvk2 r-4qtqp9 r-yyyyoo r-lwhw9o r-dnmrzs r-bnwqim r-1plcrui r-lrvibr"><path d="M19.75 22H4.25C3.01 22 2 20.99 2 19.75V4.25C2 3.01 3.01 2 4.25 2h15.5C20.99 2 22 3.01 22 4.25v15.5c0 1.24-1.01 2.25-2.25 2.25zM4.25 3.5a.75.75 0 0 0-.75.75v15.5c0 .413.336.75.75.75h15.5a.75.75 0 0 0 .75-.75V4.25a.75.75 0 0 0-.75-.75H4.25z"/><path d="M17 8.64H7a.75.75 0 0 1 0-1.5h10a.75.75 0 1 1 0 1.5zm0 4.11H7a.75.75 0 0 1 0-1.5h10a.75.75 0 0 1 0 1.5zm-5 4.11H7a.75.75 0 1 1 0-1.5h5a.75.75 0 0 1 0 1.5z"/></svg>