<svg viewBox="0 0 24 24" aria-hidden="true" class="r-1cvl2hr r-4qtqp9 r-yyyyoo r-z80fyv r-dnmrzs r-bnwqim r-1plcrui r-lrvibr r-19wmn03"><path d="M20.222 9.16h-1.334c.015-.09.028-.182.028-.277V6.57c0-.98-.797-1.777-1.778-1.777H3.5V3.358a.75.75 0 0 0-1.5 0V20.83a.75.75 0 1 0 1.5 0v-1.434h10.556a1.78 1.78 0 0 0 1.778-1.777v-2.313c0-.095-.014-.187-.028-.278h4.417a1.78 1.78 0 0 0 1.778-1.778v-2.31a1.78 1.78 0 0 0-1.778-1.78zM17.14 6.293c.152 0 .277.124.277.277v2.31a.28.28 0 0 1-.278.28H3.5V6.29h13.64zm-2.807 9.014v2.312a.278.278 0 0 1-.278.277H3.5v-2.868h10.556c.153 0 .277.126.277.28zM20.5 13.25a.278.278 0 0 1-.278.277H3.5V10.66h16.722c.153 0 .278.124.278.277v2.313z"/></svg>