<?xml version="1.0" encoding="UTF-8"?>
<svg width="700pt" height="700pt" version="1.1" viewBox="0 0 700 700" xmlns="http://www.w3.org/2000/svg">
 <g>
  <path d="m303.33 256.67c-18.562 0-36.367-7.375-49.496-20.504-13.129-13.129-20.504-30.934-20.504-49.496 0-18.566 7.375-36.371 20.504-49.5 13.129-13.125 30.934-20.5 49.496-20.5 18.566 0 36.371 7.375 49.5 20.5 13.125 13.129 20.5 30.934 20.5 49.5 0 18.562-7.375 36.367-20.5 49.496-13.129 13.129-30.934 20.504-49.5 20.504zm0-93.332v-0.003907c-6.1875 0-12.121 2.4609-16.496 6.8359-4.3789 4.375-6.8359 10.309-6.8359 16.5 0 6.1875 2.457 12.121 6.8359 16.496 4.375 4.3789 10.309 6.8359 16.496 6.8359 6.1914 0 12.125-2.457 16.5-6.8359 4.375-4.375 6.8359-10.309 6.8359-16.496 0-6.1914-2.4609-12.125-6.8359-16.5s-10.309-6.8359-16.5-6.8359z"/>
  <path d="m373.33 420c-6.1875 0-12.121-2.457-16.496-6.8359-4.3789-4.375-6.8359-10.309-6.8359-16.496v-46.668c0-6.1875-2.457-12.125-6.8359-16.5-4.375-4.375-10.309-6.832-16.496-6.832h-46.668c-6.1875 0-12.125 2.457-16.5 6.832s-6.832 10.312-6.832 16.5v46.668c0 8.3359-4.4492 16.039-11.668 20.207s-16.113 4.168-23.332 0-11.668-11.871-11.668-20.207v-46.668c0-18.566 7.375-36.371 20.504-49.496 13.125-13.129 30.93-20.504 49.496-20.504h46.668c18.562 0 36.367 7.375 49.496 20.504 13.129 13.125 20.504 30.93 20.504 49.496v46.668c0 6.1875-2.4609 12.121-6.8359 16.496-4.375 4.3789-10.309 6.8359-16.5 6.8359z"/>
  <path d="m396.67 420h-186.67c-18.566 0-36.371-7.375-49.496-20.504-13.129-13.125-20.504-30.93-20.504-49.496v-233.33c0-18.566 7.375-36.371 20.504-49.5 13.125-13.125 30.93-20.5 49.496-20.5h186.67c18.562 0 36.367 7.375 49.496 20.5 13.129 13.129 20.504 30.934 20.504 49.5v233.33c0 18.566-7.375 36.371-20.504 49.496-13.129 13.129-30.934 20.504-49.496 20.504zm-186.67-326.67c-6.1875 0-12.125 2.4609-16.5 6.8359s-6.832 10.309-6.832 16.5v233.33c0 6.1875 2.457 12.125 6.832 16.5s10.312 6.832 16.5 6.832h186.67c6.1875 0 12.121-2.457 16.496-6.832 4.3789-4.375 6.8359-10.312 6.8359-16.5v-233.33c0-6.1914-2.457-12.125-6.8359-16.5-4.375-4.375-10.309-6.8359-16.496-6.8359z"/>
  <path d="m490 513.33h-186.67c-12.281 0.039063-24.355-3.1797-34.988-9.3281-10.633-6.1484-19.445-15.008-25.535-25.672-3.5938-7.1562-3.2695-15.652 0.86328-22.512 4.1328-6.8594 11.496-11.121 19.504-11.285 8.0039-0.16797 15.535 3.7852 19.949 10.465 4.168 7.2188 11.871 11.668 20.207 11.668h186.67c6.1875 0 12.125-2.4609 16.5-6.8359s6.832-10.309 6.832-16.5v-233.33c0-8.3359-4.4453-16.039-11.664-20.207-5.7461-2.8828-10.047-8.0117-11.887-14.172-1.8398-6.1562-1.0586-12.805 2.1602-18.367 3.2227-5.5625 8.5938-9.5508 14.852-11.023 6.2578-1.4727 12.844-0.30078 18.207 3.2422 10.664 6.0938 19.523 14.906 25.672 25.539 6.1484 10.633 9.3672 22.707 9.3281 34.988v233.33c0 18.566-7.375 36.371-20.504 49.5-13.125 13.125-30.93 20.5-49.496 20.5z"/>
 </g>
</svg>
