<?xml version="1.0" encoding="utf-8"?>
<!-- Generator: Adobe Illustrator 22.0.0, SVG Export Plug-In . SVG Version: 6.00 Build 0)  -->
<svg version="1.0" id="Layer_1" xmlns="http://www.w3.org/2000/svg" xmlns:xlink="http://www.w3.org/1999/xlink" x="0px" y="0px"
	 viewBox="0 0 3000 2000" style="enable-background:new 0 0 3000 2000;" xml:space="preserve">
<style type="text/css">
	.st0{fill:#1A1A1A;}
</style>
<path class="st0" d="M1940,1123.5c-124.8,0-226.4,101.5-226.4,226.4c0,124.8,101.5,226.4,226.4,226.4
	c124.8,0,226.4-101.5,226.4-226.4C2166.3,1225,2064.8,1123.5,1940,1123.5z M2071.3,1382.7l-98.6,0l0,98.6l-65.6,0l0-98.6l-98.6,0
	l-0.1-65.7l98.6,0l0.1-98.5l65.7,0l0,98.6l98.6,0L2071.3,1382.7z"/>
<path class="st0" d="M1789.5,731.9c0-207.8-169-376.8-376.8-376.8c-207.8,0-376.8,169-376.8,376.8c0,145.3,82.7,271.6,203.5,334.4
	c-274.9,58.1-482,302.6-482,594.6H813c0-304.5,247.8-552.3,552.3-552.3h94.7c104,0,201.3,28.9,284.4,79
	c12.4-14.6,26.4-27.8,41.8-39.4c-60.4-38.6-128-66.7-200.3-82C1706.7,1003.5,1789.5,877.2,1789.5,731.9z M1412.7,1053.2
	c-177.1,0-321.2-144.1-321.2-321.2c0-177.1,144.1-321.2,321.2-321.2s321.2,144.1,321.2,321.2
	C1733.9,909.1,1589.8,1053.2,1412.7,1053.2z M2062.5,1580.2c-16.8,9.1-34.6,16.3-53.4,21.5c2.1,19.5,3.2,39.2,3.2,59.3h55.5
	C2067.9,1633.6,2066,1606.7,2062.5,1580.2z"/>
</svg>
