<?xml version="1.0" encoding="UTF-8"?>
<svg width="700pt" height="700pt" version="1.1" viewBox="0 0 700 700" xmlns="http://www.w3.org/2000/svg" xmlns:xlink="http://www.w3.org/1999/xlink">
 <defs>
  <symbol id="t" overflow="visible">
   <path d="m1.9531-0.10938c-0.09375 0.054688-0.19922 0.089844-0.3125 0.10938-0.10547 0.03125-0.21875 0.046875-0.34375 0.046875-0.35547 0-0.63672-0.097656-0.84375-0.29688-0.21094-0.19531-0.3125-0.46875-0.3125-0.8125s0.10156-0.61328 0.3125-0.8125c0.20703-0.19531 0.48828-0.29688 0.84375-0.29688 0.125 0 0.23828 0.015625 0.34375 0.046875 0.11328 0.023438 0.21875 0.058594 0.3125 0.10938v0.45312c-0.09375-0.070312-0.19531-0.125-0.29688-0.15625-0.09375-0.03125-0.19922-0.046875-0.3125-0.046875-0.19922 0-0.35547 0.0625-0.46875 0.1875-0.10547 0.125-0.15625 0.29688-0.15625 0.51562s0.050781 0.39062 0.15625 0.51562c0.11328 0.125 0.26953 0.1875 0.46875 0.1875 0.11328 0 0.21875-0.015625 0.3125-0.046875 0.10156-0.03125 0.20312-0.082031 0.29688-0.15625z"/>
  </symbol>
  <symbol id="a" overflow="visible">
   <path d="m1.4375-1.1562c-0.054688-0.019531-0.10156-0.035156-0.14062-0.046875-0.042969-0.007813-0.085937-0.015625-0.125-0.015625-0.13672 0-0.24219 0.042969-0.3125 0.125-0.074219 0.085938-0.10938 0.20312-0.10938 0.35938v0.73438h-0.5v-1.5938h0.5v0.26562c0.070312-0.11328 0.14844-0.19141 0.23438-0.23438 0.082031-0.050781 0.17969-0.078125 0.29688-0.078125 0.019531 0 0.039062 0.007813 0.0625 0.015625h0.09375z"/>
  </symbol>
  <symbol id="d" overflow="visible">
   <path d="m1.8438-0.79688v0.14062h-1.2031c0.019531 0.11719 0.066406 0.20312 0.14062 0.26562 0.070312 0.0625 0.17578 0.09375 0.3125 0.09375 0.10156 0 0.21094-0.015625 0.32812-0.046875 0.11328-0.03125 0.22656-0.078125 0.34375-0.14062v0.39062c-0.125 0.042969-0.25 0.074219-0.375 0.09375-0.11719 0.03125-0.23047 0.046875-0.34375 0.046875-0.29297 0-0.52344-0.070312-0.6875-0.21875-0.15625-0.15625-0.23438-0.36328-0.23438-0.625 0-0.25781 0.078125-0.46094 0.23438-0.60938 0.15625-0.15625 0.375-0.23438 0.65625-0.23438 0.25 0 0.44531 0.078125 0.59375 0.23438 0.15625 0.14844 0.23438 0.35156 0.23438 0.60938zm-0.53125-0.17188c0-0.10156-0.03125-0.17969-0.09375-0.23438-0.054688-0.0625-0.12109-0.09375-0.20312-0.09375-0.10547 0-0.1875 0.03125-0.25 0.09375-0.0625 0.054687-0.10156 0.13281-0.10938 0.23438z"/>
  </symbol>
  <symbol id="e" overflow="visible">
   <path d="m0.96875-0.71875c-0.11719 0-0.19922 0.023438-0.25 0.0625-0.054688 0.03125-0.078125 0.085938-0.078125 0.15625 0 0.0625 0.019531 0.11719 0.0625 0.15625 0.039063 0.03125 0.10156 0.046875 0.1875 0.046875 0.09375 0 0.17188-0.03125 0.23438-0.09375 0.070312-0.070313 0.10938-0.16016 0.10938-0.26562v-0.0625zm0.76562-0.1875v0.90625h-0.5v-0.23438c-0.074219 0.09375-0.15234 0.16797-0.23438 0.21875-0.085938 0.039062-0.1875 0.0625-0.3125 0.0625-0.16797 0-0.30469-0.046875-0.40625-0.14062-0.10547-0.10156-0.15625-0.23438-0.15625-0.39062 0-0.1875 0.0625-0.32031 0.1875-0.40625 0.13281-0.082031 0.33594-0.125 0.60938-0.125h0.3125v-0.046875c0-0.082031-0.039063-0.14062-0.10938-0.17188-0.0625-0.039063-0.16406-0.0625-0.29688-0.0625-0.10547 0-0.20312 0.011719-0.29688 0.03125-0.09375 0.023437-0.18359 0.054687-0.26562 0.09375v-0.39062c0.10156-0.019531 0.21094-0.035156 0.32812-0.046875 0.11328-0.019531 0.22266-0.03125 0.32812-0.03125 0.28906 0 0.5 0.058594 0.625 0.17188 0.125 0.11719 0.1875 0.30469 0.1875 0.5625z"/>
  </symbol>
  <symbol id="c" overflow="visible">
   <path d="m0.79688-2.0469v0.45312h0.53125v0.35938h-0.53125v0.67188c0 0.085938 0.015625 0.14062 0.046875 0.17188 0.03125 0.023437 0.085938 0.03125 0.17188 0.03125h0.26562v0.35938h-0.4375c-0.19922 0-0.33984-0.039062-0.42188-0.125-0.085937-0.082031-0.125-0.22656-0.125-0.4375v-0.67188h-0.26562v-0.35938h0.26562v-0.45312z"/>
  </symbol>
  <symbol id="m" overflow="visible">
   <path d="m1.3281-1.3594v-0.85938h0.51562v2.2188h-0.51562v-0.23438c-0.0625 0.09375-0.14062 0.16797-0.23438 0.21875-0.085938 0.039062-0.17969 0.0625-0.28125 0.0625-0.19922 0-0.36719-0.078125-0.5-0.23438-0.125-0.15625-0.1875-0.35938-0.1875-0.60938s0.0625-0.45312 0.1875-0.60938c0.13281-0.15625 0.30078-0.23438 0.5-0.23438 0.10156 0 0.19531 0.027344 0.28125 0.078125 0.09375 0.042969 0.17188 0.10938 0.23438 0.20312zm-0.32812 1.0312c0.10156 0 0.17969-0.035156 0.23438-0.10938 0.0625-0.082031 0.09375-0.20312 0.09375-0.35938s-0.03125-0.26953-0.09375-0.34375c-0.054687-0.082031-0.13281-0.125-0.23438-0.125-0.11719 0-0.20312 0.042969-0.26562 0.125-0.054687 0.074219-0.078125 0.1875-0.078125 0.34375s0.023438 0.27734 0.078125 0.35938c0.0625 0.074219 0.14844 0.10938 0.26562 0.10938z"/>
  </symbol>
  <symbol id="l" overflow="visible">
   <path d="m1.0938-0.32812c0.11328 0 0.19531-0.035156 0.25-0.10938 0.0625-0.082031 0.09375-0.20312 0.09375-0.35938s-0.03125-0.26953-0.09375-0.34375c-0.054688-0.082031-0.13672-0.125-0.25-0.125-0.10547 0-0.1875 0.042969-0.25 0.125-0.0625 0.074219-0.09375 0.1875-0.09375 0.34375 0 0.14844 0.03125 0.26172 0.09375 0.34375 0.0625 0.085937 0.14453 0.125 0.25 0.125zm-0.34375-1.0312c0.070312-0.09375 0.14844-0.16016 0.23438-0.20312 0.09375-0.050781 0.19141-0.078125 0.29688-0.078125 0.19531 0 0.35938 0.078125 0.48438 0.23438s0.1875 0.35938 0.1875 0.60938-0.0625 0.45312-0.1875 0.60938-0.28906 0.23438-0.48438 0.23438c-0.10547 0-0.20312-0.023438-0.29688-0.0625-0.085937-0.050781-0.16406-0.125-0.23438-0.21875v0.23438h-0.5v-2.2188h0.5z"/>
  </symbol>
  <symbol id="g" overflow="visible">
   <path d="m0.03125-1.5938h0.51562l0.42188 1.0781 0.375-1.0781h0.51562l-0.67188 1.75c-0.074219 0.17578-0.15625 0.29688-0.25 0.35938-0.085938 0.070313-0.19922 0.10938-0.34375 0.10938h-0.29688v-0.32812h0.15625c0.082031 0 0.14453-0.015625 0.1875-0.046875 0.039063-0.023438 0.070313-0.070312 0.09375-0.14062l0.015625-0.046875z"/>
  </symbol>
  <symbol id="k" overflow="visible">
   <path d="m0.09375-2.125h0.51562l0.375 1.5469 0.35938-1.5469h0.53125l0.35938 1.5469 0.375-1.5469h0.51562l-0.5 2.125h-0.625l-0.39062-1.625-0.375 1.625h-0.64062z"/>
  </symbol>
  <symbol id="f" overflow="visible">
   <path d="m1.8594-0.96875v0.96875h-0.51562v-0.73438c0-0.14453-0.007812-0.24219-0.015625-0.29688-0.011719-0.050781-0.023437-0.085938-0.03125-0.10938-0.023437-0.039063-0.046875-0.066406-0.078125-0.078125-0.03125-0.019531-0.074219-0.03125-0.125-0.03125-0.10547 0-0.1875 0.042969-0.25 0.125-0.0625 0.085938-0.09375 0.19922-0.09375 0.34375v0.78125h-0.5v-2.2188h0.5v0.85938c0.082031-0.09375 0.16406-0.16016 0.25-0.20312 0.082031-0.050781 0.17578-0.078125 0.28125-0.078125 0.1875 0 0.32812 0.058594 0.42188 0.17188 0.10156 0.11719 0.15625 0.28125 0.15625 0.5z"/>
  </symbol>
  <symbol id="j" overflow="visible">
   <path d="m0.23438-0.625v-0.96875h0.5v0.15625 0.32812 0.26562c0 0.125 0.003906 0.21875 0.015625 0.28125 0.007812 0.054688 0.019531 0.089844 0.03125 0.10938 0.019531 0.03125 0.046875 0.058594 0.078125 0.078125 0.039063 0.023438 0.082031 0.03125 0.125 0.03125 0.10156 0 0.1875-0.039062 0.25-0.125 0.0625-0.082031 0.09375-0.19531 0.09375-0.34375v-0.78125h0.5v1.5938h-0.5v-0.23438c-0.085937 0.09375-0.16797 0.16797-0.25 0.21875-0.085937 0.039062-0.17969 0.0625-0.28125 0.0625-0.1875 0-0.32812-0.054688-0.42188-0.17188-0.09375-0.11328-0.14062-0.28125-0.14062-0.5z"/>
  </symbol>
  <symbol id="i" overflow="visible">
   <path d="m0.26562-2.125h0.92188c0.26953 0 0.47266 0.0625 0.60938 0.1875 0.14453 0.11719 0.21875 0.28125 0.21875 0.5 0 0.23047-0.074219 0.40625-0.21875 0.53125-0.13672 0.11719-0.33984 0.17188-0.60938 0.17188h-0.375v0.73438h-0.54688zm0.54688 0.39062v0.59375h0.3125c0.10156 0 0.17969-0.023437 0.23438-0.078125 0.0625-0.050781 0.09375-0.125 0.09375-0.21875s-0.03125-0.16406-0.09375-0.21875c-0.054687-0.050781-0.13281-0.078125-0.23438-0.078125z"/>
  </symbol>
  <symbol id="s" overflow="visible">
   <path d="m0.25-1.5938h0.5v1.5938h-0.5zm0-0.625h0.5v0.42188h-0.5z"/>
  </symbol>
  <symbol id="h" overflow="visible">
   <path d="m1.8594-0.96875v0.96875h-0.51562v-0.75c0-0.13281-0.007812-0.22656-0.015625-0.28125-0.011719-0.050781-0.023437-0.085938-0.03125-0.10938-0.023437-0.039063-0.046875-0.066406-0.078125-0.078125-0.03125-0.019531-0.074219-0.03125-0.125-0.03125-0.10547 0-0.1875 0.042969-0.25 0.125-0.0625 0.085938-0.09375 0.19922-0.09375 0.34375v0.78125h-0.5v-1.5938h0.5v0.23438c0.082031-0.09375 0.16406-0.16016 0.25-0.20312 0.082031-0.050781 0.17578-0.078125 0.28125-0.078125 0.1875 0 0.32812 0.058594 0.42188 0.17188 0.10156 0.11719 0.15625 0.28125 0.15625 0.5z"/>
  </symbol>
  <symbol id="b" overflow="visible">
   <path d="m1-1.2656c-0.10547 0-0.1875 0.042969-0.25 0.125-0.0625 0.074219-0.09375 0.1875-0.09375 0.34375s0.03125 0.27734 0.09375 0.35938c0.0625 0.074219 0.14453 0.10938 0.25 0.10938 0.11328 0 0.19531-0.035156 0.25-0.10938 0.0625-0.082031 0.09375-0.20312 0.09375-0.35938s-0.03125-0.26953-0.09375-0.34375c-0.054688-0.082031-0.13672-0.125-0.25-0.125zm0-0.375c0.28125 0 0.49219 0.078125 0.64062 0.23438 0.15625 0.14844 0.23438 0.35156 0.23438 0.60938 0 0.26172-0.078125 0.46875-0.23438 0.625-0.14844 0.14844-0.35938 0.21875-0.64062 0.21875-0.27344 0-0.48438-0.070312-0.64062-0.21875-0.15625-0.15625-0.23438-0.36328-0.23438-0.625 0-0.25781 0.078125-0.46094 0.23438-0.60938 0.15625-0.15625 0.36719-0.23438 0.64062-0.23438z"/>
  </symbol>
  <symbol id="r" overflow="visible">
   <path d="m1.2969-2.2188v0.32812h-0.28125c-0.074219 0-0.125 0.015625-0.15625 0.046875-0.023437 0.023438-0.03125 0.070312-0.03125 0.14062v0.10938h0.42188v0.35938h-0.42188v1.2344h-0.51562v-1.2344h-0.25v-0.35938h0.25v-0.10938c0-0.17578 0.046875-0.30469 0.14062-0.39062 0.09375-0.082031 0.24219-0.125 0.45312-0.125z"/>
  </symbol>
  <symbol id="q" overflow="visible">
   <path d="m1.7188-1.3281c0.070312-0.10156 0.14844-0.17969 0.23438-0.23438 0.09375-0.050781 0.19141-0.078125 0.29688-0.078125 0.1875 0 0.32812 0.058594 0.42188 0.17188 0.09375 0.11719 0.14062 0.28125 0.14062 0.5v0.96875h-0.51562v-0.82812-0.046875-0.046875c0-0.11328-0.015625-0.19531-0.046875-0.25-0.03125-0.050781-0.085938-0.078125-0.15625-0.078125-0.09375 0-0.17188 0.042969-0.23438 0.125-0.054687 0.074219-0.078125 0.1875-0.078125 0.34375v0.78125h-0.51562v-0.82812c0-0.17578-0.015625-0.28906-0.046875-0.34375-0.023438-0.050781-0.074219-0.078125-0.15625-0.078125-0.09375 0-0.17188 0.042969-0.23438 0.125-0.054687 0.074219-0.078125 0.1875-0.078125 0.34375v0.78125h-0.5v-1.5938h0.5v0.23438c0.0625-0.09375 0.13281-0.16016 0.21875-0.20312 0.082031-0.050781 0.17188-0.078125 0.26562-0.078125 0.11328 0 0.21094 0.027344 0.29688 0.078125 0.082031 0.054688 0.14453 0.13281 0.1875 0.23438z"/>
  </symbol>
  <symbol id="p" overflow="visible">
   <path d="m0.26562-2.125h0.60938l0.78125 1.4531v-1.4531h0.51562v2.125h-0.60938l-0.78125-1.4688v1.4688h-0.51562z"/>
  </symbol>
  <symbol id="o" overflow="visible">
   <path d="m0.25-1.5938h0.5v1.5625c0 0.21875-0.054688 0.37891-0.15625 0.48438-0.09375 0.11328-0.24219 0.17188-0.4375 0.17188h-0.25v-0.32812h0.078125c0.10156 0 0.17188-0.023437 0.20312-0.0625 0.039062-0.042969 0.0625-0.13281 0.0625-0.26562zm0-0.625h0.5v0.42188h-0.5z"/>
  </symbol>
  <symbol id="n" overflow="visible">
   <path d="m1.5312-1.5469v0.42188c-0.0625-0.050781-0.13281-0.085938-0.20312-0.10938-0.074219-0.019531-0.14844-0.03125-0.21875-0.03125-0.14844 0-0.26172 0.042969-0.34375 0.125-0.074219 0.085937-0.10938 0.19922-0.10938 0.34375 0 0.14844 0.035156 0.26172 0.10938 0.34375 0.082031 0.085937 0.19531 0.125 0.34375 0.125 0.082031 0 0.15625-0.007813 0.21875-0.03125 0.070313-0.019531 0.14062-0.054687 0.20312-0.10938v0.42188c-0.074219 0.03125-0.15234 0.050781-0.23438 0.0625-0.085937 0.019531-0.16797 0.03125-0.25 0.03125-0.29297 0-0.52344-0.070312-0.6875-0.21875-0.15625-0.15625-0.23438-0.36328-0.23438-0.625 0-0.25781 0.078125-0.46094 0.23438-0.60938 0.16406-0.15625 0.39453-0.23438 0.6875-0.23438 0.082031 0 0.16406 0.011719 0.25 0.03125 0.082031 0.011719 0.16016 0.03125 0.23438 0.0625z"/>
  </symbol>
 </defs>
 <g>
  <path d="m513.33 93.332h-280c-12.832 0-23.332 10.5-23.332 23.332v280c0 12.832 10.5 23.332 23.332 23.332h280c12.832 0 23.332-10.5 23.332-23.332l0.003907-280c0-12.836-10.5-23.336-23.336-23.336zm-140 46.668c32.191 0 58.332 26.141 58.332 58.332 0 32.191-26.141 58.332-58.332 58.332-32.219 0-58.332-26.141-58.332-58.332 0-32.191 26.113-58.332 58.332-58.332zm116.67 227.5c0 3.207-2.625 5.832-5.832 5.832h-221.67c-3.207 0-5.832-2.625-5.832-5.832v-17.5c0-38.5 23.332-70 116.67-70 93.332 0 116.67 31.5 116.67 70z"/>
  <path d="m490 431.67h-285.83c-3.207 0-5.832-2.625-5.832-5.832l-0.003907-285.84h-4.375c-16.844 0-30.625 13.781-30.625 30.625v265.42c0 16.844 13.781 30.625 30.625 30.625h265.42c16.844 0 30.625-13.781 30.625-30.625z"/>
  <use x="70" y="568.75" xlink:href="#t"/>
  <use x="72.140625" y="568.75" xlink:href="#a"/>
  <use x="73.578125" y="568.75" xlink:href="#d"/>
  <use x="75.558594" y="568.75" xlink:href="#e"/>
  <use x="77.523438" y="568.75" xlink:href="#c"/>
  <use x="78.917969" y="568.75" xlink:href="#d"/>
  <use x="80.898437" y="568.75" xlink:href="#m"/>
  <use x="84" y="568.75" xlink:href="#l"/>
  <use x="86.089844" y="568.75" xlink:href="#g"/>
  <use x="89.003906" y="568.75" xlink:href="#k"/>
  <use x="92.222656" y="568.75" xlink:href="#e"/>
  <use x="94.191406" y="568.75" xlink:href="#f"/>
  <use x="96.265625" y="568.75" xlink:href="#g"/>
  <use x="98.167969" y="568.75" xlink:href="#j"/>
  <use x="101.261719" y="568.75" xlink:href="#i"/>
  <use x="103.398438" y="568.75" xlink:href="#a"/>
  <use x="104.835938" y="568.75" xlink:href="#s"/>
  <use x="105.835938" y="568.75" xlink:href="#f"/>
  <use x="107.914062" y="568.75" xlink:href="#e"/>
  <use x="109.878906" y="568.75" xlink:href="#h"/>
  <use x="111.957031" y="568.75" xlink:href="#c"/>
  <use x="113.351562" y="568.75" xlink:href="#b"/>
  <use x="115.355469" y="568.75" xlink:href="#a"/>
  <use x="116.792969" y="568.75" xlink:href="#b"/>
  <use x="70" y="571.667969" xlink:href="#r"/>
  <use x="71.269531" y="571.667969" xlink:href="#a"/>
  <use x="72.707031" y="571.667969" xlink:href="#b"/>
  <use x="74.710938" y="571.667969" xlink:href="#q"/>
  <use x="78.765625" y="571.667969" xlink:href="#c"/>
  <use x="80.160156" y="571.667969" xlink:href="#f"/>
  <use x="82.234375" y="571.667969" xlink:href="#d"/>
  <use x="85.230469" y="571.667969" xlink:href="#p"/>
  <use x="87.671875" y="571.667969" xlink:href="#b"/>
  <use x="89.675781" y="571.667969" xlink:href="#j"/>
  <use x="91.75" y="571.667969" xlink:href="#h"/>
  <use x="94.84375" y="571.667969" xlink:href="#i"/>
  <use x="96.980469" y="571.667969" xlink:href="#a"/>
  <use x="98.417969" y="571.667969" xlink:href="#b"/>
  <use x="100.421875" y="571.667969" xlink:href="#o"/>
  <use x="101.421875" y="571.667969" xlink:href="#d"/>
  <use x="103.402344" y="571.667969" xlink:href="#n"/>
  <use x="105.128906" y="571.667969" xlink:href="#c"/>
 </g>
</svg>
